<svg xmlns="http://www.w3.org/2000/svg" viewBox="0 0 1024 1024" role="img" aria-label="PPAASS Desktop Agent icon">
  <defs>
    <linearGradient id="bg" x1="128" y1="64" x2="896" y2="960" gradientUnits="userSpaceOnUse">
      <stop offset="0" stop-color="#23303c"/>
      <stop offset="0.42" stop-color="#172026"/>
      <stop offset="1" stop-color="#0d141a"/>
    </linearGradient>
    <linearGradient id="p" x1="338" y1="286" x2="708" y2="746" gradientUnits="userSpaceOnUse">
      <stop offset="0" stop-color="#ffffff"/>
      <stop offset="1" stop-color="#dce8f5"/>
    </linearGradient>
    <linearGradient id="accent" x1="258" y1="782" x2="782" y2="690" gradientUnits="userSpaceOnUse">
      <stop offset="0" stop-color="#22d3ee"/>
      <stop offset="0.58" stop-color="#3b82f6"/>
      <stop offset="1" stop-color="#34d399"/>
    </linearGradient>
    <filter id="soft-shadow" x="-24%" y="-24%" width="148%" height="148%" color-interpolation-filters="sRGB">
      <feDropShadow dx="0" dy="34" stdDeviation="34" flood-color="#020617" flood-opacity="0.34"/>
    </filter>
    <filter id="mark-shadow" x="-20%" y="-20%" width="140%" height="140%" color-interpolation-filters="sRGB">
      <feDropShadow dx="0" dy="22" stdDeviation="18" flood-color="#020617" flood-opacity="0.28"/>
    </filter>
  </defs>

  <rect width="1024" height="1024" rx="232" fill="url(#bg)"/>
  <path d="M158 228c110-100 265-145 422-118 142 25 256 101 330 223-86-68-190-103-313-103-160 0-287 61-439-2Z" fill="#ffffff" opacity="0.06"/>
  <path d="M864 792c-112 94-266 134-424 100-128-28-234-100-314-214 98 62 205 88 324 68 148-25 268-100 414 46Z" fill="#38bdf8" opacity="0.08"/>

  <g filter="url(#soft-shadow)">
    <rect x="226" y="198" width="572" height="628" rx="148" fill="#ffffff" opacity="0.045"/>
    <rect x="258" y="232" width="508" height="560" rx="124" fill="#0b1117" opacity="0.32"/>
  </g>

  <g filter="url(#mark-shadow)">
    <path d="M326 738V286h246c142 0 234 82 234 207 0 128-92 211-234 211H466v34H326Zm140-161h94c67 0 107-31 107-84 0-52-40-82-107-82h-94v166Z" fill="url(#p)"/>
    <path d="M326 738V286h246c142 0 234 82 234 207 0 128-92 211-234 211H466v34H326Zm140-161h94c67 0 107-31 107-84 0-52-40-82-107-82h-94v166Z" fill="#ffffff" opacity="0.16"/>
  </g>

  <path d="M300 760c142 50 284 50 426 0" fill="none" stroke="url(#accent)" stroke-width="28" stroke-linecap="round" opacity="0.86"/>
  <circle cx="736" cy="750" r="22" fill="#34d399"/>
  <path d="M718 312c48 28 84 65 110 112" fill="none" stroke="#93c5fd" stroke-width="18" stroke-linecap="round" opacity="0.26"/>
</svg>
