<svg xmlns="http://www.w3.org/2000/svg" viewBox="0 0 1024 1024" role="img" aria-label="PPAASS Agent icon">
  <defs>
    <filter id="shadow" x="-18%" y="-18%" width="136%" height="136%" color-interpolation-filters="sRGB">
      <feDropShadow dx="0" dy="30" stdDeviation="30" flood-color="#155ee8" flood-opacity="0.14"/>
      <feDropShadow dx="0" dy="12" stdDeviation="14" flood-color="#1f2937" flood-opacity="0.08"/>
    </filter>
    <clipPath id="plate-clip">
      <rect x="64" y="64" width="896" height="896" rx="220"/>
    </clipPath>
  </defs>

  <rect x="64" y="64" width="896" height="896" rx="220" fill="#ffffff" filter="url(#shadow)"/>
  <rect x="74" y="74" width="876" height="876" rx="210" fill="none" stroke="#d7e4ff" stroke-width="20"/>

  <g clip-path="url(#plate-clip)">
    <circle cx="244" cy="208" r="168" fill="#eaf1ff"/>
    <circle cx="842" cy="184" r="128" fill="#fff0a6" opacity="0.72"/>
    <circle cx="866" cy="810" r="172" fill="#d9f8ec" opacity="0.82"/>
    <circle cx="128" cy="840" r="150" fill="#ffd9ea" opacity="0.76"/>
    <rect x="148" y="788" width="728" height="42" rx="21" fill="#eaf1ff"/>
  </g>

  <path d="M316 754V270h262c145 0 238 84 238 212 0 130-93 216-238 216H464v56H316Zm148-188h98c66 0 105-31 105-84 0-51-39-82-105-82h-98v166Z" fill="#155ee8"/>
  <path d="M464 400h98c66 0 105 31 105 82 0 53-39 84-105 84h-98V400Z" fill="#ffffff" opacity="0.94"/>

  <rect x="270" y="780" width="164" height="28" rx="14" fill="#e51670"/>
  <rect x="450" y="780" width="164" height="28" rx="14" fill="#f2c100"/>
  <rect x="630" y="780" width="128" height="28" rx="14" fill="#00b985"/>
  <circle cx="786" cy="794" r="18" fill="#155ee8"/>

  <path d="M722 314c48 30 84 72 106 124" fill="none" stroke="#155ee8" stroke-width="18" stroke-linecap="round" opacity="0.24"/>
  <path d="M250 244c72-42 150-60 234-54" fill="none" stroke="#e51670" stroke-width="18" stroke-linecap="round" opacity="0.18"/>
</svg>
